<svg xmlns="http://www.w3.org/2000/svg" x="0px" y="0px" width="100" height="100" viewBox="0 0 100 100">
                <path fill="none" stroke="#000" stroke-linecap="round" stroke-linejoin="round" stroke-miterlimit="10" stroke-width="4" d="M81.838,25.113c-0.021-1.489-0.662-2.901-1.769-3.897s-2.579-1.485-4.061-1.35c-18.316,1.615-33.899-1.108-51.099-0.848	c-1.625,0.036-3.169,0.718-4.29,1.895c-1.121,1.176-1.728,2.751-1.686,4.376c0.261,16.911-1.598,34.222-0.673,50.573	c0.239,3.393,2.962,6.079,6.357,6.271c18.318,1.033,35.46,1.211,50.888,0.157c3.424-0.258,6.022-3.193,5.862-6.623	C80.122,53.45,82.642,75.498,81.838,25.113z"></path><polyline fill="none" stroke="#060000" stroke-linecap="round" stroke-linejoin="round" stroke-miterlimit="10" stroke-width="2" points="34.791,31.537 39.28,40.212 46.351,30.812"></polyline><line x1="39.084" x2="39.121" y1="47.789" y2="40.016" fill="none" stroke="#060000" stroke-linecap="round" stroke-linejoin="round" stroke-miterlimit="10" stroke-width="2"></line><path fill="none" stroke="#060000" stroke-linecap="round" stroke-linejoin="round" stroke-miterlimit="10" stroke-width="2" d="M51.476,38.212c-2.74-0.204-3.807,2.139-3.788,4.603c0.02,2.463,0.618,4.844,2.872,4.705c2.253-0.14,3.272-1.989,3.694-4.51	C54.675,40.491,54.217,38.417,51.476,38.212z"></path><path fill="none" stroke="#060000" stroke-linecap="round" stroke-linejoin="round" stroke-miterlimit="10" stroke-width="2" d="M59.935,38.513c0,0-3.089,9.321,1.891,9.333c6.446,0.014,3.78-9.466,3.78-9.466"></path><path fill="none" stroke="#060000" stroke-linecap="round" stroke-linejoin="round" stroke-miterlimit="10" stroke-width="2" d="M74.795,58.421c0,0-0.694-3.17-3.46-3.431c-2.767-0.26-35.865-1.047-39.279-0.893c-3.509,0.159-4.263,3.06-4.263,3.06	s-0.673,10.741,0.088,13.369c0.543,1.878,1.494,3.394,4.008,3.17c2.749-0.243,33.442,0.009,36.863-0.502	c3.422-0.511,4.695-1.051,5.457-4.286C74.971,65.673,74.795,58.421,74.795,58.421z"></path><line x1="35.965" x2="44.205" y1="59.536" y2="59.695" fill="none" stroke="#060000" stroke-linecap="round" stroke-linejoin="round" stroke-miterlimit="10" stroke-width="2"></line><line x1="40.023" x2="40.052" y1="68.276" y2="59.955" fill="none" stroke="#060000" stroke-linecap="round" stroke-linejoin="round" stroke-miterlimit="10" stroke-width="2"></line><path fill="none" stroke="#060000" stroke-linecap="round" stroke-linejoin="round" stroke-miterlimit="10" stroke-width="2" d="M45.542,63.516c0,0-1.432,5.235,1.889,4.928c3.32-0.307,1.805-4.659,1.805-4.659"></path><path fill="none" stroke="#060000" stroke-linecap="round" stroke-linejoin="round" stroke-miterlimit="10" stroke-width="2" d="M53.996,57.826l-0.458,10.069c0,0,5.042-0.019,4.331-3.003s-4.141-1.16-4.141-1.16"></path><path fill="none" stroke="#060000" stroke-linecap="round" stroke-linejoin="round" stroke-miterlimit="10" stroke-width="2" d="M61.103,64.973l4.847-0.878c0,0-0.46-2.543-2.796-2.078c-2.336,0.466-3.282,4.414-1.568,5.767c1.714,1.352,3.38-0.397,3.38-0.397"></path><line x1="19.424" x2="22.421" y1="58.995" y2="58.823" fill="none" stroke="#000" stroke-linecap="round" stroke-linejoin="round" stroke-miterlimit="10" stroke-width="2"></line><line x1="19.248" x2="22.245" y1="53.866" y2="53.694" fill="none" stroke="#000" stroke-linecap="round" stroke-linejoin="round" stroke-miterlimit="10" stroke-width="2"></line><line x1="68.584" x2="71.999" y1="23.813" y2="20.398" fill="none" stroke="#000" stroke-linecap="round" stroke-linejoin="round" stroke-miterlimit="10" stroke-width="2"></line><line x1="63.898" x2="67.314" y1="23.713" y2="20.298" fill="none" stroke="#000" stroke-linecap="round" stroke-linejoin="round" stroke-miterlimit="10" stroke-width="2"></line><line x1="73" x2="77.756" y1="25.947" y2="21.191" fill="none" stroke="#000" stroke-linecap="round" stroke-linejoin="round" stroke-miterlimit="10" stroke-width="2"></line><line x1="77.019" x2="81.775" y1="28.599" y2="23.843" fill="none" stroke="#000" stroke-linecap="round" stroke-linejoin="round" stroke-miterlimit="10" stroke-width="2"></line><line x1="78.793" x2="81.776" y1="32.331" y2="29.955" fill="none" stroke="#000" stroke-linecap="round" stroke-linejoin="round" stroke-miterlimit="10" stroke-width="2"></line><line x1="79.163" x2="82.146" y1="37.418" y2="35.042" fill="none" stroke="#000" stroke-linecap="round" stroke-linejoin="round" stroke-miterlimit="10" stroke-width="2"></line><line x1="19.873" x2="22.029" y1="64.664" y2="64.301" fill="none" stroke="#000" stroke-linecap="round" stroke-linejoin="round" stroke-miterlimit="10" stroke-width="2"></line><line x1="19.873" x2="22.482" y1="70.661" y2="70.142" fill="none" stroke="#000" stroke-linecap="round" stroke-linejoin="round" stroke-miterlimit="10" stroke-width="2"></line><line x1="19.873" x2="23.689" y1="78.041" y2="76.323" fill="none" stroke="#000" stroke-linecap="round" stroke-linejoin="round" stroke-miterlimit="10" stroke-width="2"></line><line x1="26" x2="28.654" y1="81.397" y2="79.274" fill="none" stroke="#000" stroke-linecap="round" stroke-linejoin="round" stroke-miterlimit="10" stroke-width="2"></line><line x1="33.621" x2="35.398" y1="81.397" y2="79.631" fill="none" stroke="#000" stroke-linecap="round" stroke-linejoin="round" stroke-miterlimit="10" stroke-width="2"></line><line x1="39.809" x2="43.188" y1="82.624" y2="79.267" fill="none" stroke="#000" stroke-linecap="round" stroke-linejoin="round" stroke-miterlimit="10" stroke-width="2"></line><path fill-rule="evenodd" d="M24.601,28.575c0.552,0,1,0.448,1,1s-0.448,1-1,1s-1-0.448-1-1	S24.049,28.575,24.601,28.575" clip-rule="evenodd"></path><path fill-rule="evenodd" d="M74.157,32.213c0.552,0,1,0.448,1,1s-0.448,1-1,1s-1-0.448-1-1	S73.605,32.213,74.157,32.213" clip-rule="evenodd"></path><path fill-rule="evenodd" d="M30.44,25.032c0.552,0,1,0.448,1,1s-0.448,1-1,1s-1-0.448-1-1	S29.888,25.032,30.44,25.032" clip-rule="evenodd"></path><line x1="70.529" x2="73.395" y1="76.542" y2="81.459" fill="none" stroke="#000" stroke-linecap="round" stroke-linejoin="round" stroke-miterlimit="10" stroke-width="2"></line><line x1="75.901" x2="78.046" y1="76.086" y2="79.98" fill="none" stroke="#000" stroke-linecap="round" stroke-linejoin="round" stroke-miterlimit="10" stroke-width="2"></line>
                </svg>